<?xml version="1.0" encoding="UTF-8" standalone="no"?>
<!-- Generator: Adobe Illustrator 16.0.0, SVG Export Plug-In . SVG Version: 6.00 Build 0)  -->

<svg xmlns:dc="http://purl.org/dc/elements/1.1/" xmlns:cc="http://creativecommons.org/ns#" xmlns:rdf="http://www.w3.org/1999/02/22-rdf-syntax-ns#" xmlns:svg="http://www.w3.org/2000/svg" xmlns="http://www.w3.org/2000/svg" xmlns:sodipodi="http://sodipodi.sourceforge.net/DTD/sodipodi-0.dtd" xmlns:inkscape="http://www.inkscape.org/namespaces/inkscape" version="1.1" id="Layer_2" x="0px" y="0px" width="150" height="150" viewBox="17.409 8.256 150 150" xml:space="preserve" inkscape:version="0.48.4 r9939" sodipodi:docname="adobe-illustrator-cs6.svg"><metadata id="metadata21"><rdf:RDF><cc:Work rdf:about=""><dc:format>image/svg+xml</dc:format><dc:type rdf:resource="http://purl.org/dc/dcmitype/StillImage" /></cc:Work></rdf:RDF></metadata><defs id="defs19" /><sodipodi:namedview pagecolor="#ffffff" bordercolor="#666666" borderopacity="1" objecttolerance="10" gridtolerance="10" guidetolerance="10" inkscape:pageopacity="0" inkscape:pageshadow="2" inkscape:window-width="640" inkscape:window-height="480" id="namedview17" showgrid="false" inkscape:zoom="2.8449605" inkscape:cx="81.444684" inkscape:cy="29.974802" inkscape:window-x="0" inkscape:window-y="27" inkscape:window-maximized="0" inkscape:current-layer="Layer_2" /><linearGradient id="SVGID_1_" gradientUnits="userSpaceOnUse" x1="-551.77557" y1="1628.417" x2="-1021.4476" y2="1158.7446" gradientTransform="matrix(0.31346421,0,0,-0.32004314,339.81358,528.43797)"><stop offset="0" style="stop-color:#FFAA2A" id="stop4" /><stop offset="1" style="stop-color:#FFC06C" id="stop6" /></linearGradient><rect x="17.409" y="8.0735025" style="fill:url(#SVGID_1_)" width="150.2249" height="150.18248" id="rect8" /><linearGradient id="SVGID_2_" gradientUnits="userSpaceOnUse" x1="-788.59741" y1="1589.8408" x2="-788.59741" y2="1195.1748" gradientTransform="matrix(0.31346421,0,0,-0.32004314,339.81358,528.43797)"><stop offset="0" style="stop-color:#251200" id="stop11" /><stop offset="1" style="stop-color:#000000" id="stop13" /></linearGradient><path style="fill:url(#SVGID_2_)" d="M 72.210381,84.528932 H 85.526027 L 78.86836,58.166657 72.210381,84.528932 z M 28.774272,19.83317 V 146.57025 H 156.4589 V 19.83317 H 28.774272 z M 92.833818,113.43363 87.961957,96.301078 H 69.936511 L 65.06465,113.43363 H 52.722937 L 70.098886,52.861301 V 46.229368 H 86.662962 L 106.47453,113.43363 H 92.833818 z m 32.803712,0 H 112.32157 V 62.312175 h 13.31596 v 51.121455 z m -6.57742,-57.256041 c -3.81172,0 -6.90216,-3.117861 -6.90216,-6.963499 0,-3.845959 3.08981,-6.963818 6.90216,-6.963818 3.81236,0 6.90186,3.117859 6.90186,6.963818 0,3.845638 -3.08982,6.963499 -6.90186,6.963499 z" id="path15" inkscape:connector-curvature="0" /></svg>