<?xml version="1.0" encoding="UTF-8" standalone="no"?>
<!-- Generator: Adobe Illustrator 16.0.0, SVG Export Plug-In . SVG Version: 6.00 Build 0)  -->

<svg xmlns:dc="http://purl.org/dc/elements/1.1/" xmlns:cc="http://creativecommons.org/ns#" xmlns:rdf="http://www.w3.org/1999/02/22-rdf-syntax-ns#" xmlns:svg="http://www.w3.org/2000/svg" xmlns="http://www.w3.org/2000/svg" xmlns:sodipodi="http://sodipodi.sourceforge.net/DTD/sodipodi-0.dtd" xmlns:inkscape="http://www.inkscape.org/namespaces/inkscape" version="1.1" id="Indesign_1_" x="0px" y="0px" width="150" height="150" viewBox="6.998 11.998 150 150" xml:space="preserve" inkscape:version="0.48.4 r9939" sodipodi:docname="adobe-indesign-cs6.svg"><metadata id="metadata3030"><rdf:RDF><cc:Work rdf:about=""><dc:format>image/svg+xml</dc:format><dc:type rdf:resource="http://purl.org/dc/dcmitype/StillImage" /></cc:Work></rdf:RDF></metadata><defs id="defs3028" /><sodipodi:namedview pagecolor="#ffffff" bordercolor="#666666" borderopacity="1" objecttolerance="10" gridtolerance="10" guidetolerance="10" inkscape:pageopacity="0" inkscape:pageshadow="2" inkscape:window-width="640" inkscape:window-height="480" id="namedview3026" showgrid="false" showborder="true" inkscape:zoom="2.7469272" inkscape:cx="79.870513" inkscape:cy="192.04255" inkscape:window-x="32" inkscape:window-y="27" inkscape:window-maximized="0" inkscape:current-layer="Indesign_1_" /><g id="Frame_2_" transform="matrix(0.30013466,0,0,0.30892817,4.8976577,8.1511512)"><g id="g3000"><rect x="6.9980001" y="11.998" style="fill:#eb43a3" width="499.004" height="486.004" id="rect3002" /></g></g><g id="Background_2_" transform="matrix(0.30013466,0,0,0.30892817,4.8976577,8.1511512)"><g id="g3005"><rect x="45.008999" y="51.015999" style="fill:#412534" width="421.98599" height="407.96899" id="rect3007" /></g></g><g id="Shadow2_2_" style="opacity:0.30199998" transform="matrix(0.30013466,0,0,0.30892817,4.8976577,8.1511512)"><g id="g3010"><polygon points="199,151 186,244 161,357 306,459 467,459 467,213 367,140 347,230 " id="polygon3012" /></g></g><g id="Shadow_3_" style="opacity:0.30199998" transform="matrix(0.30013466,0,0,0.30892817,4.8976577,8.1511512)"><g id="g3015"><rect x="45.008999" y="51.000999" width="421.98599" height="13.998" id="rect3017" /></g></g><g id="Id" transform="matrix(0.30013466,0,0,0.30892817,4.8976577,8.1511512)"><g id="g3020"><path style="fill:#eb43a3" d="M 199.52,150.998 V 356.902 H 161.944 V 150.998 h 37.576 z" id="path3022" inkscape:connector-curvature="0" /><path style="fill:#eb43a3" d="m 366.013,140 v 175.05 c 0,15.274 0.61,31.771 1.223,41.854 h -33.604 l -1.526,-23.523 h -0.611 c -8.858,16.497 -26.884,26.884 -48.574,26.884 -35.438,0 -63.543,-30.243 -63.543,-76.067 -0.306,-49.796 30.855,-79.429 66.6,-79.429 20.468,0 35.132,8.554 41.853,19.552 h 0.611 V 140 h 37.571 z m -37.575,130.143 c 0,-3.056 -0.307,-6.722 -0.917,-9.776 -3.36,-14.664 -15.274,-26.578 -32.383,-26.578 -24.135,0 -37.575,21.384 -37.575,49.185 0,27.188 13.44,47.046 37.271,47.046 15.274,0 28.717,-10.387 32.382,-26.578 0.917,-3.359 1.224,-7.025 1.224,-10.997 l -0.002,-22.302 0,0 z" id="path3024" inkscape:connector-curvature="0" /></g></g></svg>