<?xml version="1.0" encoding="UTF-8" standalone="no"?>
<!-- Generator: Adobe Illustrator 16.0.0, SVG Export Plug-In . SVG Version: 6.00 Build 0)  -->

<svg xmlns:dc="http://purl.org/dc/elements/1.1/" xmlns:cc="http://creativecommons.org/ns#" xmlns:rdf="http://www.w3.org/1999/02/22-rdf-syntax-ns#" xmlns:svg="http://www.w3.org/2000/svg" xmlns="http://www.w3.org/2000/svg" xmlns:sodipodi="http://sodipodi.sourceforge.net/DTD/sodipodi-0.dtd" xmlns:inkscape="http://www.inkscape.org/namespaces/inkscape" version="1.1" id="Livello_1" x="0px" y="0px" width="150" height="150" viewBox="0 0 150 150" enable-background="new 0 0 300 295" xml:space="preserve" inkscape:version="0.48.4 r9939" sodipodi:docname="Adobe_Photoshop_CS6_icon.svg"><metadata id="metadata3096"><rdf:RDF><cc:Work rdf:about=""><dc:format>image/svg+xml</dc:format><dc:type rdf:resource="http://purl.org/dc/dcmitype/StillImage" /></cc:Work></rdf:RDF></metadata><defs id="defs3094" /><sodipodi:namedview pagecolor="#ffffff" bordercolor="#666666" borderopacity="1" objecttolerance="10" gridtolerance="10" guidetolerance="10" inkscape:pageopacity="0" inkscape:pageshadow="2" inkscape:window-width="754" inkscape:window-height="712" id="namedview3092" showgrid="false" borderlayer="true" fit-margin-top="0" fit-margin-left="0" fit-margin-right="0" fit-margin-bottom="0" inkscape:zoom="2.2627417" inkscape:cx="68.581576" inkscape:cy="126.81244" inkscape:window-x="60" inkscape:window-y="27" inkscape:window-maximized="0" inkscape:current-layer="Livello_1" /><g id="g3033" transform="matrix(0.49928511,0,0,0.50624946,0,0.6564078)"><g id="Layer_2_1_"><g id="g3036"><linearGradient id="SVGID_1_" gradientUnits="userSpaceOnUse" x1="72.905296" y1="-15.4063" x2="187.90559" y2="227.5943"><stop offset="0" style="stop-color:#A0CBFF" id="stop3039" /><stop offset="0.3941" style="stop-color:#A0CBFE" id="stop3041" /><stop offset="0.583" style="stop-color:#8EC2FC" id="stop3043" /><stop offset="0.7838" style="stop-color:#83BCFB" id="stop3045" /><stop offset="1" style="stop-color:#7FBAFB" id="stop3047" /></linearGradient><rect x="0" width="300" height="295" id="rect3049" y="0" style="fill:url(#SVGID_1_)" /></g></g><g id="Layer_2"><g id="g3052"><linearGradient id="SVGID_2_" gradientUnits="userSpaceOnUse" x1="113.7256" y1="26.954599" x2="178.7258" y2="242.95531"><stop offset="0" style="stop-color:#090058" id="stop3055" /><stop offset="1" style="stop-color:#070033" id="stop3057" /></linearGradient><rect x="23.858999" y="23.459" width="252.284" height="248.082" id="rect3059" style="fill:url(#SVGID_2_)" /></g></g><g id="Layer_4"><g id="g3062"><linearGradient id="SVGID_3_" gradientUnits="userSpaceOnUse" x1="37.1362" y1="-2.4779999" x2="152.1362" y2="240.522"><stop offset="0" style="stop-color:#A0CBFF" id="stop3065" /><stop offset="0.3941" style="stop-color:#A0CBFE" id="stop3067" /><stop offset="0.583" style="stop-color:#8EC2FC" id="stop3069" /><stop offset="0.7838" style="stop-color:#83BCFB" id="stop3071" /><stop offset="1" style="stop-color:#7FBAFB" id="stop3073" /></linearGradient><path d="m 72.498,83.144 c 0,0 18.968,-0.499 34.582,-0.499 15.778,0 27.028,3.712 34.581,10.235 7.219,6.164 12.087,16.672 12.087,28.634 0,11.962 -3.694,21.75 -10.41,28.633 -8.729,8.881 -18.901,14.137 -36.258,14.865 -4.795,0.201 -9.233,0.249 -9.233,0.249 v 38.884 h -25.35 l 0.001,-121.001 0,0 z m 25.348,60.573 c 2.754,0.268 4.48,0.139 8.562,0.09 13.598,-0.163 21.989,-8.432 21.989,-20.937 0,-11.234 -6.919,-20.458 -19.973,-20.936 -5.203,-0.19 -10.578,0 -10.578,0 v 41.783 z" id="path3075" inkscape:connector-curvature="0" style="fill:url(#SVGID_3_)" /><g id="g3077"><linearGradient id="SVGID_4_" gradientUnits="userSpaceOnUse" x1="102.6431" y1="-34.2061" x2="218.0972" y2="209.7536"><stop offset="0" style="stop-color:#A0CBFF" id="stop3080" /><stop offset="0.3941" style="stop-color:#A0CBFE" id="stop3082" /><stop offset="0.583" style="stop-color:#8EC2FC" id="stop3084" /><stop offset="0.7838" style="stop-color:#83BCFB" id="stop3086" /><stop offset="1" style="stop-color:#7FBAFB" id="stop3088" /></linearGradient><path d="m 163.422,177.055 c 5.109,3.135 17.165,7.83 25.383,7.83 8.396,0 11.863,-2.959 11.863,-7.572 0,-4.619 -2.738,-9.471 -13.145,-12.979 -18.439,-6.279 -25.559,-13.795 -25.375,-24.315 0,-16.991 14.238,-29.731 36.328,-29.731 10.407,0 18.719,3.402 24.192,6.17 v 20.392 c -4.019,-2.218 -15.612,-7.17 -23.278,-7.17 -6.758,0 -10.59,2.769 -10.59,7.382 0,4.248 3.471,6.464 14.424,10.344 16.976,5.908 24.096,14.584 24.277,27.879 0,16.805 -12.954,30.168 -38.701,29.357 -8.835,-0.278 -18.624,-3.77 -25.379,-7.459 v -20.128 z" id="path3090" inkscape:connector-curvature="0" style="fill:url(#SVGID_4_)" /></g></g></g></g></svg>